<svg viewBox="0 0 400 400" xmlns="http://www.w3.org/2000/svg" height="400" width="400"><path d="M294.38 227.634c-0.366 -2.932 -3.878 -2.122 -6.126 -2.46 -1.942 -0.292 -28.178 -1.784 -28.852 -0.42 -1.268 2.562 1.8 6.434 3.036 8.326a9.704 9.704 0 0 1 1.938 5.656c-0.08 4.4 -1.266 8.362 -5.342 10.63 -4.67 2.6 -11.36 3.6 -16.022 0.68a14.56 14.56 0 0 1 -6.912 -8.482 12.234 12.234 0 0 1 2.46 -9.898c1.948 -2.348 5.446 -7.434 4.138 -8.534 -0.106 -0.052 -29.218 -0.742 -34.09 -1.414 -2.302 -0.318 -6.286 -2.148 -7.12 1.1 -0.58 2.25 -1.1 35.45 -1.1 38.016 0 1.518 -0.052 2.464 -1.78 2.984 -4.85 1.458 -12.168 -6.6 -21.312 -2.828 -7.38 3.048 -8.106 13.084 -4.19 19.218a11.296 11.296 0 0 0 8.8 4.504c1.308 0.102 6.532 -0.38 8.588 -2.462a7.246 7.246 0 0 1 4.816 -1.518c11.412 -0.646 4.504 34.036 4.6 34.2s70.638 3.718 76.4 3.718c4.818 0 10.284 -0.296 13.562 -3.822 3 -3.23 3.2 -8.064 3.3 -12.462 0.04 -1.736 1.628 -71.38 1.208 -74.732Zm-61.526 0.316c-4.504 0.28 -24.926 1.466 -25.45 1.57 -0.68 -0.052 -0.838 0.262 -0.576 1.048 -0.47 1.78 2.692 17.6 -0.21 24.138 -0.322 0.73 -1.4 0.422 -1.2 -0.314 2 -7.158 -0.13 -19.582 -0.156 -21.888 -0.012 -1.098 -0.432 -3.2 0.47 -4.136s21.936 -1.544 27.126 -1.676c0.78 -0.02 0.78 1.208 -0.004 1.258Z" fill="#ffffff" stroke-width="1"></path><path d="M168.656 276.386c-0.724 -2.778 -4.666 -2.158 -6.6 -1.2 -1.576 0.778 -2.466 2.298 -3.928 3.248a18.22 18.22 0 0 1 -6.022 2.67c-7.336 1.6 -14.07 -5.08 -14.714 -12.044 -0.46 -4.976 0.628 -13.064 12.306 -13.038a18.91 18.91 0 0 1 10.054 3.246c2.2 1.25 7.046 3.028 8.43 -0.418 0.464 -1.156 -0.75 -36.818 -3.09 -37.702 -0.526 -0.2 -25.03 0.6 -30.474 0.628 -5.028 0.026 -5.692 -5.022 -4.504 -8.954a41.632 41.632 0 0 1 2.514 -5.55 10.336 10.336 0 0 0 -6.964 -14.19 18.932 18.932 0 0 0 -8.536 -0.2 13.568 13.568 0 0 0 -8.428 7.318c-1.362 3.2 0.508 7.34 2.146 10.106 1.09 1.84 1.51 6.12 0.052 7.908 -1.568 1.924 -2.484 1.362 -38.33 3.56 0.106 6.86 0.162 32.984 0.42 33.304 0.374 0.464 7.488 -0.318 7.75 -0.21 1.212 0.506 2.264 11.48 1.57 12.2a23.954 23.954 0 0 1 -8.22 1.31c-0.054 1.308 0.048 47.708 2.932 50.322 1.62 1.468 90.164 -3.674 91 -4.242 2.296 -1.546 1.644 -34.202 0.636 -38.072ZM138.442 226.8a70.946 70.946 0 0 1 22.674 -0.472c0.732 0.108 0.576 1.356 -0.158 1.308a109.72 109.72 0 0 0 -22.2 0.368c-0.736 0.098 -1.106 -1.068 -0.316 -1.204Zm-33.828 0.628c-6.182 0.858 -12.464 0.918 -18.692 1.518a6.686 6.686 0 0 0 -5.4 2.618c-1.852 2.816 -1.848 9.948 -2.094 12.934 -0.056 0.68 -1.152 0.68 -1.1 0 0.37 -4.87 -0.786 -13.614 4.556 -16.286 2.932 -1.466 18.378 -2.146 22.516 -2.146 0.8 0.05 1 1.25 0.214 1.36ZM125.666 197c-10.512 -2.568 -12.274 7.124 -11.94 10.316 0.098 0.944 -1.22 0.95 -1.518 0.2 -1.442 -3.582 1.852 -16.366 13.876 -11.572 0.632 0.256 0.21 1.212 -0.418 1.056Z" fill="#ffffff" stroke-width="1"></path><path d="M195.832 135.422a13.438 13.438 0 0 0 -7.33 -8.422c-3.2 -1.362 -7.34 0.508 -10.106 2.148 -1.84 1.088 -6.12 1.51 -7.908 0.052 -1.924 -1.57 -1.362 -2.486 -3.56 -38.33 -11.258 0.156 -22.57 0.262 -33.828 0.418a42.502 42.502 0 0 0 9.74 16.112 30.968 30.968 0 0 1 -5.498 5.6c-10.892 -5.184 -19.8 -20.546 -20.788 -20.528 -4.14 0.08 -43.886 -0.108 -46.498 2.776 -1.47 1.622 3.678 90.162 4.24 91 1.448 2.176 34.092 1.532 37.964 0.524 2.778 -0.724 2.158 -4.666 1.2 -6.6 -0.776 -1.576 -4.712 -3.4 -5.916 -9.95 -1.36 -7.382 5.08 -14.07 12.042 -14.714 4.976 -0.46 10.384 1.952 12.254 6.6a14.306 14.306 0 0 1 0.786 5.708 19.8 19.8 0 0 1 -3.248 10.054c-1.248 2.2 -3.028 7.046 0.42 8.43 1.154 0.464 36.818 -0.75 37.702 -3.09 0.2 -0.526 -0.6 -25.03 -0.628 -30.474 -0.028 -5.028 5.02 -5.692 8.954 -4.504a41.632 41.632 0 0 1 5.55 2.514 10.382 10.382 0 0 0 14.194 -6.946 18.484 18.484 0 0 0 0.262 -8.378ZM94.666 99.868c-3.76 -1.034 -14.3 0.988 -15.6 1.728a6.092 6.092 0 0 0 -2.724 5.708c-0.052 6.86 3.64 49.534 3.77 63.988 0 0.838 -1.2 0.786 -1.308 0C76.64 154.6 74.754 112.6 74.664 108.56c-0.064 -2.774 0.2 -5.658 2.46 -7.54 2.2 -1.836 14.6 -3.24 17.856 -2.304a0.6 0.6 0 0 1 -0.314 1.152Z" fill="#ffffff" stroke-width="1"></path><path d="M284.692 46.09c-0.982 -4.714 -2.358 -10 -6.492 -12.514 -3.774 -2.3 -8.536 -1.516 -12.882 -0.68q-38.09 7.322 -76.136 14.66c1.518 -0.314 4.084 26.812 5.08 31.786 3.036 0.786 5.866 -1.83 8.378 -3.142a20.89 20.89 0 0 1 9.738 -2.252 19.6 19.6 0 0 1 8.118 3.09c3.484 4.052 5.812 10.368 3.926 15.552a14.282 14.282 0 0 1 -6.912 8.482 12.37 12.37 0 0 1 -10.2 -0.366c-2.672 -1.4 -5.446 -3.614 -9.164 -2.304 -0.104 0.052 5.55 32.78 6.546 39.692 4.816 -2.148 35.344 -6.494 35.868 -6.128 4.346 3.04 -0.268 8 -0.89 9.216 -3.068 5.954 -3.388 13.548 1.518 18.538a15.2 15.2 0 0 0 8.326 3.98c9.266 1.842 16.382 -0.896 20.894 -9.584a12.484 12.484 0 0 0 0.052 -11.938c-1.294 -2.418 -3.032 -4.298 -4.45 -6.65 -1.044 -1.73 -2.2 -5.446 -0.472 -7.174a3.8 3.8 0 0 1 1.728 -0.734c3.442 -0.8 18.588 -4.036 19.218 -4.136 1.046 -0.166 3.666 -3.6 4.66 -3.77a27.452 27.452 0 0 1 7.33 2.4c-1.274 -0.494 -11.424 -64.714 -13.782 -76.024Zm-8.378 1.676a0.726 0.726 0 0 1 -1.414 0.21c-2.716 -7.6 -12.566 -4.502 -18.588 -3.614 -6.388 0.944 -44.846 6.374 -57.652 8.17 -0.682 0.096 -0.838 -1.098 -0.158 -1.2 15.144 -2.4 59.96 -9.294 67.236 -10 4.138 -0.41 10.876 1.042 10.576 6.434Z" fill="#ffffff" stroke-width="1"></path><path d="M314.854 100.234c1.628 0.174 4.438 -0.52 4.084 -2.722a0.744 0.744 0 0 0 -1.36 -0.158c-0.524 1.728 -2.306 1.562 -2.88 1.676 -0.736 0.146 -0.47 1.138 0.156 1.204Z" fill="#615c56" stroke-width="1"></path><path d="M311.032 91.7a10.28 10.28 0 0 0 0.156 4.87c0.562 0.848 2.264 1.366 2.776 0.2a0.652 0.652 0 0 0 -0.366 -0.942c-0.26 -0.058 -0.576 0.052 -0.838 -0.052 -0.472 -0.158 -0.472 -3.09 -0.524 -4.136a0.6 0.6 0 0 0 -1.204 0.06Z" fill="#615c56" stroke-width="1"></path><path d="M314.122 90.338c0 0.838 0.366 2 1.36 2.094a0.6 0.6 0 0 0 0.628 -0.628c-0.056 -0.366 -0.732 -0.68 -0.628 -1.624 0.106 -0.58 -1.36 -0.78 -1.36 0.158Z" fill="#615c56" stroke-width="1"></path><path d="M293.752 95.68c2.816 6.212 9.484 13.93 17.018 13.456 0.682 -0.042 1.096 -1.042 0.366 -1.414a28.06 28.06 0 0 1 -16.336 -12.672c-0.42 -0.68 -1.358 -0.05 -1.048 0.63Z" fill="#615c56" stroke-width="1"></path><path d="M140.17 117.252a16.428 16.428 0 0 0 8.954 4.976 0.622 0.622 0 0 0 0.314 -1.152c-1.372 -0.714 -6.91 -3.04 -8.274 -4.818 -0.522 -0.682 -1.616 0.412 -0.994 0.994Z" fill="#615c56" stroke-width="1"></path><path d="M143.73 114.896c1.74 2.558 5.444 5.492 8.8 4.452a0.71 0.71 0 0 0 0 -1.362c-1.312 -0.412 -5.39 -0.892 -7.436 -3.876 -0.578 -0.838 -1.936 -0.054 -1.364 0.786Z" fill="#615c56" stroke-width="1"></path><path d="M146.61 113.168a12.4 12.4 0 0 0 8.012 3.928c0.734 -0.014 1.152 -1.15 0.418 -1.466 -1.2 -0.52 -5.886 -1.748 -7.12 -3.77 -0.614 -1.006 -2.158 0.482 -1.31 1.308Z" fill="#615c56" stroke-width="1"></path><path d="M148.758 110.864c1.632 0.98 4.23 2.126 6.074 1.31a0.6 0.6 0 0 0 0 -1 10.094 10.094 0 0 1 -5.29 -1.676c-0.796 -0.662 -1.67 0.834 -0.784 1.366Z" fill="#615c56" stroke-width="1"></path><path d="M124.4 40.906a3.438 3.438 0 0 0 3.77 3.928c0.368 -0.104 0.628 -0.734 0.262 -1 -0.576 -0.472 -2.88 -0.786 -2.932 -3.09 0.06 -0.622 -1.04 -0.466 -1.1 0.162Z" fill="#615c56" stroke-width="1"></path><path d="M129.016 41.274a1.8 1.8 0 0 0 2.88 0.522 7.88 7.88 0 0 0 1 -3.874 0.652 0.652 0 0 0 -1.1 -0.262c-0.78 0.818 -0.724 3.098 -1.2 3.2 -0.262 0.052 -0.734 -0.262 -1 -0.366 -0.37 -0.216 -0.842 0.362 -0.58 0.78Z" fill="#615c56" stroke-width="1"></path><path d="M129.278 38.026c0.21 -0.26 1.362 -1.412 1.362 -1.884a0.716 0.716 0 0 0 -0.734 -0.734c-0.576 0 -1.57 1.624 -1.728 2 -0.314 0.618 0.682 1.142 1.1 0.618Z" fill="#615c56" stroke-width="1"></path><path d="M151.69 105.366a22.902 22.902 0 0 0 -8.692 1.152c-4.556 -7.278 -14.348 -26.182 -16.286 -45.138 4.242 1.048 4.766 -1.518 4.974 -2.564s-2.042 -7.6 -0.784 -11.154a17.588 17.588 0 0 0 7.068 -12.662 7.814 7.814 0 0 0 6.442 -2.828 5.512 5.512 0 0 0 -0.838 -7.54c-3 -2.106 -6.752 -0.186 -10.212 -0.314a69.4 69.4 0 0 1 -6.86 -1.414c-5.6 -0.776 -10.982 2.578 -14.766 6.754a58.772 58.772 0 0 0 -5.916 7.488c-3.986 6.176 -10.982 9.748 -11.416 10.578 -3.654 7 2.23 12.288 12.462 6.8C94.4 64.942 86.6 83.538 85.136 92.014a0.706 0.706 0 0 0 1.362 0.366C93.512 67.384 113.4 46.568 121 54.416c3.4 3.512 5.6 30.058 20.474 53.568l0.054 0.052a17.06 17.06 0 0 1 -4.19 4.032c-7.488 -4.346 -18.012 -10.944 -30.424 -42.466 -0.104 -0.314 -0.8 0.106 -0.732 0.418a66.71 66.71 0 0 0 30.532 43.83 0.73 0.73 0 0 0 0.576 0.104A29.262 29.262 0 0 0 143.52 108.2c0.054 0 5.552 -1.728 7.96 -1.1 0.838 0.1 1.256 -1.522 0.21 -1.734ZM110.06 52.218c1.152 -0.89 8.08 -7.238 10.16 -14.296a3.2 3.2 0 0 1 0.784 -1.362c0.368 -0.366 6.18 -2.46 8.378 -5.4 0.21 -0.314 1.048 0.784 2.358 1.622a4.538 4.538 0 0 0 -2.934 0.682c-0.522 0.314 -0.16 1.248 0.42 1.046a14.868 14.868 0 0 1 2.88 -0.262 0.666 0.666 0 0 0 0.418 -0.942 8.448 8.448 0 0 0 3.51 1.362c-1.048 3.298 -1.668 6.552 -4.086 9.32 -2.66 3.046 -7.824 6 -10.524 1.31 -0.364 -0.632 -1.2 -0.158 -1.1 0.47a5.46 5.46 0 0 0 0.89 2.304 14.456 14.456 0 0 0 -1.832 2.88 9.6 9.6 0 0 0 -9.322 1.266Z" fill="#615c56" stroke-width="1"></path><path d="M49 210.094a27.6 27.6 0 0 1 -0.418 3.088c-0.314 0.42 -0.682 0.058 -1.048 0a0.57 0.57 0 0 0 -0.418 1.048 1.784 1.784 0 0 0 2.514 -0.472 8.244 8.244 0 0 0 0.418 -3.718c0.018 -0.628 -0.946 -0.576 -1.048 0.054Z" fill="#615c56" stroke-width="1"></path><path d="M44.816 208.628a2 2 0 0 1 1.728 -0.472c0.576 0.05 0.836 -0.884 0.314 -1.1a2.436 2.436 0 0 0 -2.828 0.734c-0.47 0.628 0.248 1.41 0.786 0.838Z" fill="#615c56" stroke-width="1"></path><path d="M45.34 209.674a6.4 6.4 0 0 1 -0.052 1 0.572 0.572 0 0 0 1.046 0.314 2.31 2.31 0 0 0 0.158 -1.414c-0.064 -0.684 -1.204 -0.528 -1.152 0.1Z" fill="#615c56" stroke-width="1"></path><path d="M42.616 214.6c0.682 2.514 3.68 2.842 4.346 2.094a0.648 0.648 0 0 0 -0.262 -1.046 3.504 3.504 0 0 1 -3.036 -1.518c-0.352 -0.53 -1.152 -0.11 -1.048 0.47Z" fill="#615c56" stroke-width="1"></path><path d="M87.8 256.016a8.4 8.4 0 0 0 6.074 -4.712c0.246 -0.74 -0.936 -1.308 -1.2 -0.682a10.316 10.316 0 0 1 -5.236 4.084 0.68 0.68 0 0 0 0.362 1.31Z" fill="#615c56" stroke-width="1"></path><path d="M88.958 258.11a8.97 8.97 0 0 0 6.702 -3.298c0.37 -0.522 -0.316 -1.106 -0.838 -0.838a25.768 25.768 0 0 1 -6.074 2.776c-0.73 0.162 -0.576 1.45 0.21 1.36Z" fill="#615c56" stroke-width="1"></path><path d="M89.062 261.41a8.702 8.702 0 0 0 6.546 -3.038 0.65 0.65 0 0 0 -0.732 -0.942c-2.088 0.6 -3.562 2.346 -5.814 2.618 -0.838 0.102 -0.89 1.408 0 1.362Z" fill="#615c56" stroke-width="1"></path><path d="M95.66 259.89a21.2 21.2 0 0 1 -11.99 3.824 16.982 16.982 0 0 0 -0.942 -7.856 9.062 9.062 0 0 0 5.13 -4.764c0.258 -0.682 -0.898 -1.314 -1.2 -0.68a10.622 10.622 0 0 1 -4.136 3.926 0.812 0.812 0 0 0 -0.89 -0.418c-4.342 0.506 -13.3 1.728 -20.736 -5.812a14.626 14.626 0 0 0 7.068 -0.262 0.78 0.78 0 0 0 -0.2 -1.52 61.152 61.152 0 0 1 -8.694 -0.262 57.812 57.812 0 0 1 -7.382 -11.152 33.4 33.4 0 0 0 16.86 2.828c0.89 -0.116 0.578 -1.616 -0.2 -1.468 -6.378 1.214 -18.6 -4.346 -18.642 -4.346a29.868 29.868 0 0 0 -6.388 -6.912 0.052 0.052 0 0 1 -0.054 -0.052 19.08 19.08 0 0 1 0.838 -4.45c3.09 0.052 10.316 -2.88 7.856 -18.538a10.16 10.16 0 0 0 2.566 -6.702c0 -1.046 0.736 -4.618 -2.044 -5.498 -1.672 -0.53 -4.298 3.684 -12.986 4.974 -3.772 0.562 -6.858 4.6 -8.064 8.274 -1.872 5.698 1.932 13.76 3.824 14.138 -0.21 1.832 -0.682 3.56 -1.048 5.4a0.668 0.668 0 0 0 0.524 0.786 15.918 15.918 0 0 0 -8.588 7.696c-13.77 26.4 -4.4 54.878 -4.242 55.086a3.324 3.324 0 0 0 0.682 0.524c7.382 33.828 -10.682 79.6 -10.63 80.116a9.238 9.238 0 0 0 -1.414 8.694 0.85 0.85 0 0 0 1.048 0.576c3.77 0.942 19 1.982 21.572 0.26a1 1 0 0 0 0 -1.674 45.306 45.306 0 0 0 -13.2 -7.226c7.174 -3.772 25.134 -40.688 27.8 -66.24 0.628 -0.368 0.462 0.158 0.524 0.89 0.362 4.246 -2.094 15.028 -2 15.238 8.064 13.09 13.772 45.346 13.772 45.712 -0.96 1.166 -1.736 8.098 -0.262 8.588 3.874 1.048 19.916 0.81 22.62 -1.256a1.044 1.044 0 0 0 0.2 -1.624 28.536 28.536 0 0 0 -14.766 -6.232c1.362 -5.026 2.514 -47.022 -12.254 -76.292a5.84 5.84 0 0 0 1 -1.258 2.8 2.8 0 0 0 0.262 -1.2c-0.51 -3.292 -4.032 -12.2 -3.3 -18.746 19.114 7.906 29.062 2.4 29.114 2.356a0.73 0.73 0 0 0 0.576 -0.576c0.096 -0.524 0.2 -1.1 0.262 -1.676a15.982 15.982 0 0 0 12.778 -4.136c0.528 -0.376 -0.108 -1.434 -0.624 -1.058ZM12.2 374.672a11.938 11.938 0 0 1 0.68 -6.65 6.328 6.328 0 0 0 3.246 0.68c0.106 0.052 9.478 2.67 14.506 6.546 -1.106 0.208 -5.4 1.466 -18.432 -0.576Zm54.09 -10.158a33.432 33.432 0 0 1 13.772 4.922c-6.126 2.2 -15.97 0.68 -18.956 0.838a16 16 0 0 1 -0.2 -5.446 7.82 7.82 0 0 0 5.378 -0.314Zm-29.584 -148.4c0.262 -0.522 1.152 -2.4 1.466 -2.25a2.856 2.856 0 0 1 -1.466 -3.77 2.92 2.92 0 0 1 3.874 -1.2c0.366 -0.942 0.734 -1.884 1.152 -2.826 -0.052 0.156 6.232 0.156 8.8 -2.618 0.156 1.046 0.314 2.094 0.418 3.088 -0.6 0.12 -1.086 0.836 -0.732 1.1 0.262 0.262 0.784 0.104 0.784 0.104a17.298 17.298 0 0 1 -0.262 4.086c-0.8 4.142 -4.412 8.934 -9.216 6.44a0.61 0.61 0 0 0 -0.628 1.048 6.868 6.868 0 0 0 1.938 1 21.532 21.532 0 0 0 -1 3.718 8.68 8.68 0 0 0 -6.652 -0.838 16.952 16.952 0 0 0 1.518 -7.082ZM38 248.528c-0.43 -0.62 -1.412 -0.054 -1.046 0.576a41.178 41.178 0 0 0 14.922 14.976 59.694 59.694 0 0 0 2.986 20.212 38.214 38.214 0 0 1 -31.838 1.048c0 -2.124 -7.4 -28.328 3.77 -50.898 1.786 -3.61 4.6 -7.908 8.694 -9.164 4.6 -1.416 9 2.94 11 6.494 15.348 27.232 27.02 25.658 34.612 24.4a54.098 54.098 0 0 1 0.576 9.686c-2.352 0.682 -26.966 6.674 -43.676 -17.33Z" fill="#615c56" stroke-width="1"></path><path d="M287.52 117.672a355.632 355.632 0 0 0 -6.336 -6.546c-0.53 -0.516 -1.254 0.156 -1 0.734a27.486 27.486 0 0 0 6.546 6.754 0.618 0.618 0 0 0 0.79 -0.942Z" fill="#615c56" stroke-width="1"></path><path d="M283.6 117.934a12 12 0 0 1 -4.294 -5.4c-0.158 -0.68 -1.466 -0.262 -1.2 0.524a12.722 12.722 0 0 0 4.764 5.916c0.53 0.426 1.298 -0.574 0.73 -1.04Z" fill="#615c56" stroke-width="1"></path><path d="M281.918 119.242a48.344 48.344 0 0 1 -5.08 -4.502c-0.514 -0.532 -1.2 0.156 -0.942 0.732a12.35 12.35 0 0 0 5.4 4.766 0.588 0.588 0 0 0 0.622 -0.996Z" fill="#615c56" stroke-width="1"></path><path d="M389.944 364.46c-5.33 -16.8 -39.902 -107.92 -42.154 -113.104a0.876 0.876 0 0 0 -0.576 -1.362 91.612 91.612 0 0 0 -4.084 -8.22 0.6 0.6 0 0 0 -0.942 -0.21 3.182 3.182 0 0 0 -0.472 -0.682c1.31 -13.77 -3.926 -50.844 -3.874 -82.682 0 -0.104 -1.728 -19.898 -1.518 -26.652a16.366 16.366 0 0 0 3.56 -9.216c0.482 -8.272 -8.168 -14.662 -14.348 -15.866a8.648 8.648 0 0 1 -0.628 -6.232 0.904 0.904 0 0 0 0.68 -0.89c-0.026 -2.984 3.666 -4.556 3.718 -6.964a8.4 8.4 0 0 0 1.572 -7.6 5.032 5.032 0 0 0 -6.022 -3.3 4.4 4.4 0 0 0 -3.562 -2.252c-1 -3.14 -4.032 -6.336 -7.12 -3.978 -3.09 -1.362 -5.866 -0.734 -6.388 2.512 -1.624 -0.366 -3.352 -0.418 -4.19 1.258 -1.234 2.466 0.646 6.658 4.19 8.43 -1.866 5.264 -0.05 15.068 5.968 17.646 0.524 2.828 -1.464 3.928 -1.622 5.028 -0.57 3.928 3.924 5 6.65 4.66a7.726 7.726 0 0 0 6.8 -6.022c7.226 2.2 13.78 7.856 11.626 16.128 -2.686 10.304 -18.548 17.87 -33.304 12.044 -6.6 -2.6 -11.52 -7.96 -16.232 -13.04a10.37 10.37 0 0 1 3.77 -3.612c5.34 3.142 24.58 9.036 33.618 2.304 0.63 -0.47 -0.104 -1.4 -0.838 -1.048 -10.5 5.184 -22.36 1.362 -32.676 -2.618a35.8 35.8 0 0 0 -2.566 -4.974c-0.42 -0.574 -1.452 -0.266 -1.2 0.524 0.278 0.884 2.148 4.346 2.304 4.66a13.302 13.302 0 0 0 -3.926 4.45v0.054a26.244 26.244 0 0 1 -8.956 -4.976c-0.53 -0.4 -1 0.366 -0.68 0.838 2.572 3.872 10.106 5.342 10.212 5.29 5.184 6.544 10.738 12.5 18.954 15.08 10.936 3.432 22.632 0.304 29.22 -6.44a241.366 241.366 0 0 0 1.36 26.18c-0.104 0 -22.096 6.284 -31.678 -8.326 -0.054 -0.2 -3.116 -7.118 -2.828 -11.78 0.058 -0.944 -1.566 -1 -1.52 0a30.47 30.47 0 0 0 2.158 11.58 42.686 42.686 0 0 0 -17.332 35.45c0.564 14.662 8.012 30 17.856 40.79 -0.2 0.106 -6.284 2.986 -9 4.556a0.58 0.58 0 0 0 -0.314 0.524 94.43 94.43 0 0 0 -7.75 0.576c-0.104 -0.68 -1.038 -1.096 -1.36 -0.366 -15.532 35.02 -55.212 124.27 -59.066 134 -0.52 1.31 1.582 1.89 2.146 0.576 4.01 -9.338 7.908 -18.694 11.94 -28.014 7.75 0.314 38.852 -2.514 40.842 -2.724q-7 14.06 -14.662 27.8a1.056 1.056 0 0 0 1.834 1.046c5.554 -9.714 37.91 -71.11 44.246 -86.294 1.2 3.036 34.2 82.702 38.8 92.474 0.518 1.102 2.062 0.148 1.624 -0.944 -2.102 -5.224 -4.346 -10.42 -6.442 -15.6 12.516 -0.47 25.136 -2.356 37.6 -3.77a609.88 609.88 0 0 1 4.818 13.876c0.14 1.31 2.18 0.734 1.764 -0.576ZM320.718 112.122c-1.988 0.946 -6.858 1.466 -7.068 -1.52a5.866 5.866 0 0 0 1.78 -5.078 5.476 5.476 0 0 0 6.18 -4.452 0.728 0.728 0 0 0 -1.362 -0.366c-4.088 6.766 -12.584 -0.306 -11.94 -10.63a2.82 2.82 0 0 1 1.31 0.052c0.472 0.106 0.942 -0.522 0.524 -0.89a2 2 0 0 0 -1.676 -0.47 2.648 2.648 0 0 1 0.104 -1 11.92 11.92 0 0 0 4.922 0.628c-0.104 0.052 -0.26 0.158 -0.366 0.2 -0.628 0.472 0.162 1.368 0.786 1.048 0.896 -0.462 1.834 0.278 2.776 0.2a0.684 0.684 0 0 0 0.47 -1.152 2.436 2.436 0 0 0 -1.308 -0.68c0.784 -0.158 1.57 -0.418 2.356 -0.628 1.724 6.038 2.128 3.218 3.456 3.35a1.814 1.814 0 0 1 1 2.462c-0.2 0.418 -0.634 0.572 -0.89 0.942a10.352 10.352 0 0 0 1.518 4.504 12 12 0 0 0 0.892 8.534 5.704 5.704 0 0 1 -3.464 4.946Zm6.284 198.928a902.862 902.862 0 0 1 -8.22 -19.532c6.44 0.366 33.46 -1.256 40.476 -1.938 0 0 4.346 12.254 6.6 18.328 -2.776 -0.418 -38.804 3.142 -38.858 3.142Zm-16.966 -41.314c-0.836 -2.148 -5.34 -13.72 -6.754 -17.386 6.284 0.262 12.672 0.052 18.956 -0.104 -2.566 5.864 -5.342 11.624 -8.222 17.332 -1.362 0.052 -2.67 0.104 -3.98 0.158Zm2.934 1.884c-0.42 0.786 -0.838 1.572 -1.258 2.4 -0.314 -0.836 -0.68 -1.674 -1 -2.512 0.738 0.008 1.472 0.06 2.258 0.112Zm12.462 -21.416c2.828 -2.724 5.55 -5.446 8.168 -8.378 0.106 0 3.98 2.304 7.07 0.2h0.052a10.302 10.302 0 0 1 -0.734 7.75c-1.098 0.114 -10.788 0.376 -14.556 0.424Zm4.764 -15.4a0.93 0.93 0 0 0 0.42 -0.47c0.68 2.2 1.308 4.346 1.884 6.544 -2.042 2 -4.084 4.032 -6.178 6.022a104.678 104.678 0 0 0 3.878 -12.1Zm-19.06 -11.258c-1.832 -3.77 -10.972 -15.244 -8.272 -26.652 1.14 -4.82 2.304 -15.814 11.624 -23.512 2.618 20.37 9.8 39.954 15.762 59.6 -0.054 0 -11.782 -0.786 -17.648 -0.734 0.42 -1.942 -0.002 -7.178 -1.466 -8.698Zm17.6 11.416c-1.57 5.026 -5.812 15.132 -5.968 15.29 -6.652 0.104 -13.4 0.104 -20.056 0.68a571.8 571.8 0 0 0 -6.65 -16.546c3.764 -0.048 29.212 0.632 32.668 0.58Zm-4.456 17.238c0.314 0 18.746 0.104 21.73 -0.368 2.252 5.656 4.294 11.416 6.284 17.176 -0.472 -0.104 -30.476 0.418 -35.974 0.524 1.048 -2.154 6.442 -13.674 7.96 -17.332Zm20.84 -2.514a13.144 13.144 0 0 1 -2.88 0 9.144 9.144 0 0 0 0.786 -4.87c0.732 1.566 1.414 3.184 2.094 4.864Zm-34.612 -23.668c0.742 0.512 0.262 6.178 0.262 6.23 -0.942 0 -10.42 -0.052 -14.242 0 2.672 -1.158 13.358 -6.666 13.98 -6.236Zm-29.376 108.282c-1.832 0.628 -34.716 2.46 -41.21 3.298 10.788 -24.924 41.106 -93.626 45.242 -103.26 3.09 0.156 6.232 0.156 9.374 0.104 4.188 12.044 15.238 40.216 15.918 41.944 -1.572 2.984 -21.156 41.576 -29.324 57.914Zm31.576 -57.7 2.512 -4.87c5.132 0.158 37.65 0.106 37.912 -0.156 1.78 5.288 3.508 10.524 5.342 15.814 -6.756 0.628 -33.67 1.938 -40.374 2.618 -1.78 -4.51 -3.612 -8.96 -5.392 -13.406Zm14.818 35.66c6.388 0.2 35.764 -2 39.168 -2.094 0.418 1.152 4.818 12 6.6 16.232 -2.932 0.106 -31.47 3.98 -37.544 4.974 -1.992 -4.874 -7.55 -17.546 -8.224 -19.118Zm17.28 41.106c-2.776 -6.86 -5.6 -13.772 -8.43 -20.632 6.178 0.158 34.874 -3.508 37.858 -4.188 1.258 2.932 6.6 16.494 7.96 20.368 -12.41 1.304 -25.082 2.194 -37.394 4.446Z" fill="#615c56" stroke-width="1"></path></svg>